<svg width="226" height="54" viewBox="0 0 226 54" fill="none" xmlns="http://www.w3.org/2000/svg">
<path d="M80.96 42V20.08H87.36V42H80.96ZM78.04 24.8V20.08H87.36V24.8H78.04ZM83.44 17.92C82.24 17.92 81.3466 17.6133 80.76 17C80.2 16.36 79.92 15.56 79.92 14.6C79.92 13.6133 80.2 12.8133 80.76 12.2C81.3466 11.56 82.24 11.24 83.44 11.24C84.64 11.24 85.52 11.56 86.08 12.2C86.6666 12.8133 86.96 13.6133 86.96 14.6C86.96 15.56 86.6666 16.36 86.08 17C85.52 17.6133 84.64 17.92 83.44 17.92Z" fill="#D9B604"/>
<path d="M91.8394 42V37.52L102.119 25.2V25.84L101.159 24.64L101.879 25H91.8794V20.08H109.119V24.56L98.8394 36.88V36.28L99.7994 37.48L99.0794 37.08H109.439V42H91.8394Z" fill="#D9B604"/>
<path d="M114.397 42V20.08H120.797V42H114.397ZM111.477 24.8V20.08H120.797V24.8H111.477ZM116.877 17.92C115.677 17.92 114.784 17.6133 114.197 17C113.637 16.36 113.357 15.56 113.357 14.6C113.357 13.6133 113.637 12.8133 114.197 12.2C114.784 11.56 115.677 11.24 116.877 11.24C118.077 11.24 118.957 11.56 119.517 12.2C120.104 12.8133 120.397 13.6133 120.397 14.6C120.397 15.56 120.104 16.36 119.517 17C118.957 17.6133 118.077 17.92 116.877 17.92Z" fill="#D9B604"/>
<path d="M127.28 42V12.8H133.84V42H127.28ZM133.04 30.24V24.8H144.32V30.24H133.04ZM133.04 18.24V12.8H144.8V18.24H133.04Z" fill="white"/>
<path d="M159.436 42.76C157.516 42.76 155.809 42.4667 154.316 41.88C152.823 41.2667 151.556 40.44 150.516 39.4C149.503 38.36 148.729 37.1733 148.196 35.84C147.663 34.48 147.396 33.0533 147.396 31.56V30.64C147.396 29.12 147.663 27.68 148.196 26.32C148.756 24.9333 149.556 23.72 150.596 22.68C151.663 21.64 152.943 20.8267 154.436 20.24C155.929 19.6267 157.596 19.32 159.436 19.32C161.329 19.32 163.009 19.6267 164.476 20.24C165.969 20.8267 167.236 21.64 168.276 22.68C169.316 23.72 170.116 24.9333 170.676 26.32C171.236 27.68 171.516 29.12 171.516 30.64V31.56C171.516 33.0533 171.249 34.48 170.716 35.84C170.183 37.1733 169.396 38.36 168.356 39.4C167.343 40.44 166.089 41.2667 164.596 41.88C163.103 42.4667 161.383 42.76 159.436 42.76ZM159.436 37.36C160.689 37.36 161.729 37.0933 162.556 36.56C163.383 36.0267 164.009 35.28 164.436 34.32C164.889 33.36 165.116 32.2933 165.116 31.12C165.116 29.8667 164.889 28.7733 164.436 27.84C163.983 26.88 163.329 26.12 162.476 25.56C161.649 25 160.636 24.72 159.436 24.72C158.263 24.72 157.249 25 156.396 25.56C155.543 26.12 154.889 26.88 154.436 27.84C154.009 28.7733 153.796 29.8667 153.796 31.12C153.796 32.2933 154.009 33.36 154.436 34.32C154.863 35.28 155.503 36.0267 156.356 36.56C157.209 37.0933 158.236 37.36 159.436 37.36Z" fill="white"/>
<path d="M186.663 42.76C184.743 42.76 183.036 42.4667 181.543 41.88C180.049 41.2667 178.783 40.44 177.743 39.4C176.729 38.36 175.956 37.1733 175.423 35.84C174.889 34.48 174.623 33.0533 174.623 31.56V30.64C174.623 29.12 174.889 27.68 175.423 26.32C175.983 24.9333 176.783 23.72 177.823 22.68C178.889 21.64 180.169 20.8267 181.663 20.24C183.156 19.6267 184.823 19.32 186.663 19.32C188.556 19.32 190.236 19.6267 191.703 20.24C193.196 20.8267 194.463 21.64 195.503 22.68C196.543 23.72 197.343 24.9333 197.903 26.32C198.463 27.68 198.743 29.12 198.743 30.64V31.56C198.743 33.0533 198.476 34.48 197.943 35.84C197.409 37.1733 196.623 38.36 195.583 39.4C194.569 40.44 193.316 41.2667 191.823 41.88C190.329 42.4667 188.609 42.76 186.663 42.76ZM186.663 37.36C187.916 37.36 188.956 37.0933 189.783 36.56C190.609 36.0267 191.236 35.28 191.663 34.32C192.116 33.36 192.343 32.2933 192.343 31.12C192.343 29.8667 192.116 28.7733 191.663 27.84C191.209 26.88 190.556 26.12 189.703 25.56C188.876 25 187.863 24.72 186.663 24.72C185.489 24.72 184.476 25 183.623 25.56C182.769 26.12 182.116 26.88 181.663 27.84C181.236 28.7733 181.023 29.8667 181.023 31.12C181.023 32.2933 181.236 33.36 181.663 34.32C182.089 35.28 182.729 36.0267 183.583 36.56C184.436 37.0933 185.463 37.36 186.663 37.36Z" fill="white"/>
<path d="M212.249 42.72C210.702 42.72 209.289 42.44 208.009 41.88C206.756 41.32 205.662 40.5467 204.729 39.56C203.796 38.5467 203.076 37.36 202.569 36C202.089 34.64 201.849 33.1733 201.849 31.6V30.68C201.849 29.1067 202.076 27.64 202.529 26.28C203.009 24.92 203.689 23.7333 204.569 22.72C205.476 21.68 206.556 20.88 207.809 20.32C209.062 19.7333 210.462 19.44 212.009 19.44C213.769 19.44 215.289 19.8267 216.569 20.6C217.849 21.3467 218.849 22.4667 219.569 23.96C220.289 25.4267 220.689 27.24 220.769 29.4L219.089 27.84V12.8H225.529V42H220.449V32.92H221.329C221.249 35 220.809 36.7733 220.009 38.24C219.236 39.7067 218.182 40.8267 216.849 41.6C215.516 42.3467 213.982 42.72 212.249 42.72ZM213.849 37.36C214.836 37.36 215.729 37.1467 216.529 36.72C217.356 36.2667 218.009 35.6133 218.489 34.76C218.996 33.9067 219.249 32.88 219.249 31.68V30.2C219.249 29.0267 218.996 28.04 218.489 27.24C217.982 26.44 217.316 25.8267 216.489 25.4C215.662 24.9733 214.769 24.76 213.809 24.76C212.742 24.76 211.782 25.04 210.929 25.6C210.102 26.1333 209.449 26.88 208.969 27.84C208.489 28.7733 208.249 29.8667 208.249 31.12C208.249 32.4 208.489 33.5067 208.969 34.44C209.449 35.3733 210.116 36.0933 210.969 36.6C211.822 37.1067 212.782 37.36 213.849 37.36Z" fill="white"/>
<path d="M64 29.4545C64 30.7565 63.4813 32.0052 62.5581 32.9258C61.6348 33.8464 60.3826 34.3636 59.0769 34.3636H4.92308C3.6174 34.3636 2.36519 33.8464 1.44194 32.9258C0.51868 32.0052 0 30.7565 0 29.4545C0 28.1526 0.51868 26.9039 1.44194 25.9833C2.36519 25.0627 3.6174 24.5455 4.92308 24.5455H59.0769C60.3826 24.5455 61.6348 25.0627 62.5581 25.9833C63.4813 26.9039 64 28.1526 64 29.4545ZM12.3077 39.2727H4.92308C4.92308 43.1786 6.47912 46.9246 9.24889 49.6865C12.0187 52.4484 15.7753 54 19.6923 54H44.3077C48.2247 54 51.9814 52.4484 54.7511 49.6865C57.5209 46.9246 59.0769 43.1786 59.0769 39.2727H12.3077ZM9.84615 19.6364H4.92308V9.81818C4.92308 7.21424 5.96044 4.71694 7.80695 2.87568C9.65346 1.03441 12.1579 0 14.7692 0H49.2308C51.8421 0 54.3465 1.03441 56.1931 2.87568C58.0396 4.71694 59.0769 7.21424 59.0769 9.81818V19.6364H9.84615ZM49.2308 12.2727C49.2308 12.9237 49.4901 13.548 49.9517 14.0084C50.4134 14.4687 51.0395 14.7273 51.6923 14.7273C52.3452 14.7273 52.9713 14.4687 53.4329 14.0084C53.8945 13.548 54.1538 12.9237 54.1538 12.2727C54.1538 11.6217 53.8945 10.9974 53.4329 10.5371C52.9713 10.0768 52.3452 9.81818 51.6923 9.81818C51.0395 9.81818 50.4134 10.0768 49.9517 10.5371C49.4901 10.9974 49.2308 11.6217 49.2308 12.2727ZM39.3846 7.36364C39.3846 8.01462 39.644 8.63895 40.1056 9.09926C40.5672 9.55958 41.1933 9.81818 41.8462 9.81818C42.499 9.81818 43.1251 9.55958 43.5867 9.09926C44.0484 8.63895 44.3077 8.01462 44.3077 7.36364C44.3077 6.71265 44.0484 6.08833 43.5867 5.62801C43.1251 5.16769 42.499 4.90909 41.8462 4.90909C41.1933 4.90909 40.5672 5.16769 40.1056 5.62801C39.644 6.08833 39.3846 6.71265 39.3846 7.36364ZM29.5385 12.2727C29.5385 12.9237 29.7978 13.548 30.2594 14.0084C30.7211 14.4687 31.3472 14.7273 32 14.7273C32.6528 14.7273 33.2789 14.4687 33.7406 14.0084C34.2022 13.548 34.4615 12.9237 34.4615 12.2727C34.4615 11.6217 34.2022 10.9974 33.7406 10.5371C33.2789 10.0768 32.6528 9.81818 32 9.81818C31.3472 9.81818 30.7211 10.0768 30.2594 10.5371C29.7978 10.9974 29.5385 11.6217 29.5385 12.2727ZM19.6923 7.36364C19.6923 8.01462 19.9516 8.63895 20.4133 9.09926C20.8749 9.55958 21.501 9.81818 22.1538 9.81818C22.8067 9.81818 23.4328 9.55958 23.8944 9.09926C24.356 8.63895 24.6154 8.01462 24.6154 7.36364C24.6154 6.71265 24.356 6.08833 23.8944 5.62801C23.4328 5.16769 22.8067 4.90909 22.1538 4.90909C21.501 4.90909 20.8749 5.16769 20.4133 5.62801C19.9516 6.08833 19.6923 6.71265 19.6923 7.36364ZM9.84615 12.2727C9.84615 12.9237 10.1055 13.548 10.5671 14.0084C11.0288 14.4687 11.6549 14.7273 12.3077 14.7273C12.9605 14.7273 13.5866 14.4687 14.0483 14.0084C14.5099 13.548 14.7692 12.9237 14.7692 12.2727C14.7692 11.6217 14.5099 10.9974 14.0483 10.5371C13.5866 10.0768 12.9605 9.81818 12.3077 9.81818C11.6549 9.81818 11.0288 10.0768 10.5671 10.5371C10.1055 10.9974 9.84615 11.6217 9.84615 12.2727Z" fill="#D9B604"/>
</svg>
