<svg width="142" height="34" viewBox="0 0 142 34" fill="none" xmlns="http://www.w3.org/2000/svg">
<path d="M50.9749 26.4444V12.643H55.0045V26.4444H50.9749ZM49.1364 15.6148V12.643H55.0045V15.6148H49.1364ZM52.5364 11.283C51.7808 11.283 51.2184 11.0899 50.849 10.7037C50.4964 10.3007 50.3201 9.79703 50.3201 9.19258C50.3201 8.57135 50.4964 8.06764 50.849 7.68147C51.2184 7.27851 51.7808 7.07703 52.5364 7.07703C53.2919 7.07703 53.846 7.27851 54.1986 7.68147C54.568 8.06764 54.7527 8.57135 54.7527 9.19258C54.7527 9.79703 54.568 10.3007 54.1986 10.7037C53.846 11.0899 53.2919 11.283 52.5364 11.283Z" fill="#D90504"/>
<path d="M57.8249 26.4444V23.6237L64.2975 15.8667V16.2696L63.693 15.5141L64.1464 15.7407H57.8501V12.643H68.7049V15.4637L62.2323 23.2207V22.843L62.8367 23.5985L62.3834 23.3467H68.9064V26.4444H57.8249Z" fill="#D90504"/>
<path d="M72.0282 26.4444V12.643H76.0578V26.4444H72.0282ZM70.1896 15.6148V12.643H76.0578V15.6148H70.1896ZM73.5897 11.283C72.8341 11.283 72.2716 11.0899 71.9022 10.7037C71.5497 10.3007 71.3734 9.79703 71.3734 9.19258C71.3734 8.57135 71.5497 8.06764 71.9022 7.68147C72.2716 7.27851 72.8341 7.07703 73.5897 7.07703C74.3452 7.07703 74.8993 7.27851 75.2519 7.68147C75.6213 8.06764 75.806 8.57135 75.806 9.19258C75.806 9.79703 75.6213 10.3007 75.2519 10.7037C74.8993 11.0899 74.3452 11.283 73.5897 11.283Z" fill="#D90504"/>
<path d="M80.1394 26.4445V8.05927H84.2698V26.4445H80.1394ZM83.7661 19.04V15.6148H90.8683V19.04H83.7661ZM83.7661 11.4844V8.05927H91.1705V11.4844H83.7661Z" fill="#D90504"/>
<path d="M100.386 26.923C99.1769 26.923 98.1023 26.7383 97.162 26.3689C96.2218 25.9827 95.4243 25.4622 94.7694 24.8074C94.1314 24.1526 93.6445 23.4054 93.3087 22.5659C92.9729 21.7096 92.805 20.8114 92.805 19.8711V19.2919C92.805 18.3348 92.9729 17.4282 93.3087 16.5719C93.6613 15.6988 94.165 14.9348 94.8198 14.28C95.4914 13.6252 96.2973 13.1131 97.2376 12.7437C98.1778 12.3575 99.2272 12.1644 100.386 12.1644C101.578 12.1644 102.636 12.3575 103.559 12.7437C104.499 13.1131 105.297 13.6252 105.952 14.28C106.607 14.9348 107.11 15.6988 107.463 16.5719C107.815 17.4282 107.992 18.3348 107.992 19.2919V19.8711C107.992 20.8114 107.824 21.7096 107.488 22.5659C107.152 23.4054 106.657 24.1526 106.002 24.8074C105.364 25.4622 104.575 25.9827 103.635 26.3689C102.694 26.7383 101.611 26.923 100.386 26.923ZM100.386 23.523C101.175 23.523 101.83 23.3551 102.35 23.0193C102.871 22.6835 103.265 22.2133 103.534 21.6089C103.819 21.0045 103.962 20.3328 103.962 19.5941C103.962 18.8049 103.819 18.1165 103.534 17.5289C103.248 16.9245 102.837 16.4459 102.3 16.0933C101.779 15.7407 101.141 15.5645 100.386 15.5645C99.647 15.5645 99.009 15.7407 98.4717 16.0933C97.9344 16.4459 97.523 16.9245 97.2376 17.5289C96.969 18.1165 96.8346 18.8049 96.8346 19.5941C96.8346 20.3328 96.969 21.0045 97.2376 21.6089C97.5062 22.2133 97.9092 22.6835 98.4465 23.0193C98.9838 23.3551 99.6302 23.523 100.386 23.523Z" fill="#D90504"/>
<path d="M117.528 26.923C116.32 26.923 115.245 26.7383 114.305 26.3689C113.364 25.9827 112.567 25.4622 111.912 24.8074C111.274 24.1526 110.787 23.4054 110.451 22.5659C110.116 21.7096 109.948 20.8114 109.948 19.8711V19.2919C109.948 18.3348 110.116 17.4282 110.451 16.5719C110.804 15.6988 111.308 14.9348 111.962 14.28C112.634 13.6252 113.44 13.1131 114.38 12.7437C115.321 12.3575 116.37 12.1644 117.528 12.1644C118.721 12.1644 119.778 12.3575 120.702 12.7437C121.642 13.1131 122.44 13.6252 123.094 14.28C123.749 14.9348 124.253 15.6988 124.605 16.5719C124.958 17.4282 125.134 18.3348 125.134 19.2919V19.8711C125.134 20.8114 124.966 21.7096 124.631 22.5659C124.295 23.4054 123.8 24.1526 123.145 24.8074C122.507 25.4622 121.718 25.9827 120.777 26.3689C119.837 26.7383 118.754 26.923 117.528 26.923ZM117.528 23.523C118.318 23.523 118.972 23.3551 119.493 23.0193C120.013 22.6835 120.408 22.2133 120.677 21.6089C120.962 21.0045 121.105 20.3328 121.105 19.5941C121.105 18.8049 120.962 18.1165 120.677 17.5289C120.391 16.9245 119.98 16.4459 119.443 16.0933C118.922 15.7407 118.284 15.5645 117.528 15.5645C116.79 15.5645 116.152 15.7407 115.614 16.0933C115.077 16.4459 114.666 16.9245 114.38 17.5289C114.112 18.1165 113.977 18.8049 113.977 19.5941C113.977 20.3328 114.112 21.0045 114.38 21.6089C114.649 22.2133 115.052 22.6835 115.589 23.0193C116.126 23.3551 116.773 23.523 117.528 23.523Z" fill="#D90504"/>
<path d="M133.639 26.8978C132.665 26.8978 131.775 26.7215 130.969 26.3689C130.18 26.0163 129.491 25.5294 128.904 24.9082C128.316 24.2701 127.863 23.523 127.544 22.6667C127.241 21.8104 127.09 20.8869 127.09 19.8963V19.317C127.09 18.3264 127.233 17.403 127.518 16.5467C127.821 15.6904 128.249 14.9432 128.803 14.3052C129.374 13.6504 130.054 13.1467 130.843 12.7941C131.632 12.4247 132.514 12.24 133.487 12.24C134.596 12.24 135.553 12.4835 136.359 12.9704C137.164 13.4405 137.794 14.1457 138.247 15.0859C138.701 16.0094 138.953 17.1511 139.003 18.5111L137.945 17.5289V8.05927H142V26.4445H138.801V20.7274H139.356C139.305 22.037 139.028 23.1536 138.524 24.077C138.038 25.0005 137.374 25.7057 136.535 26.1926C135.695 26.6627 134.73 26.8978 133.639 26.8978ZM134.646 23.523C135.267 23.523 135.83 23.3886 136.333 23.12C136.854 22.8346 137.265 22.4232 137.567 21.8859C137.886 21.3486 138.046 20.7022 138.046 19.9467V19.0148C138.046 18.2761 137.886 17.6548 137.567 17.1511C137.248 16.6474 136.829 16.2612 136.308 15.9926C135.788 15.724 135.225 15.5896 134.621 15.5896C133.949 15.5896 133.345 15.7659 132.807 16.1185C132.287 16.4543 131.876 16.9245 131.573 17.5289C131.271 18.1165 131.12 18.8049 131.12 19.5941C131.12 20.4 131.271 21.0968 131.573 21.6844C131.876 22.2721 132.295 22.7254 132.833 23.0445C133.37 23.3635 133.974 23.523 134.646 23.523Z" fill="#D90504"/>
<path d="M40.2964 18.5455C40.2964 19.3652 39.9698 20.1514 39.3885 20.7311C38.8072 21.3107 38.0187 21.6364 37.1966 21.6364H3.09972C2.27762 21.6364 1.4892 21.3107 0.907887 20.7311C0.326577 20.1514 0 19.3652 0 18.5455C0 17.7257 0.326577 16.9395 0.907887 16.3599C1.4892 15.7802 2.27762 15.4545 3.09972 15.4545H37.1966C38.0187 15.4545 38.8072 15.7802 39.3885 16.3599C39.9698 16.9395 40.2964 17.7257 40.2964 18.5455ZM7.7493 24.7273H3.09972C3.09972 27.1866 4.07945 29.5451 5.82338 31.2841C7.56731 33.0231 9.93259 34 12.3989 34H27.8975C30.3638 34 32.729 33.0231 34.473 31.2841C36.2169 29.5451 37.1966 27.1866 37.1966 24.7273H7.7493ZM6.19944 12.3636H3.09972V6.18182C3.09972 4.5423 3.75287 2.96993 4.91549 1.81061C6.07811 0.651297 7.65497 0 9.29916 0H30.9972C32.6414 0 34.2182 0.651297 35.3809 1.81061C36.5435 2.96993 37.1966 4.5423 37.1966 6.18182V12.3636H6.19944ZM30.9972 7.72727C30.9972 8.13715 31.1605 8.53024 31.4511 8.82007C31.7418 9.1099 32.136 9.27273 32.5471 9.27273C32.9581 9.27273 33.3523 9.1099 33.643 8.82007C33.9336 8.53024 34.0969 8.13715 34.0969 7.72727C34.0969 7.31739 33.9336 6.9243 33.643 6.63447C33.3523 6.34464 32.9581 6.18182 32.5471 6.18182C32.136 6.18182 31.7418 6.34464 31.4511 6.63447C31.1605 6.9243 30.9972 7.31739 30.9972 7.72727ZM24.7978 4.63636C24.7978 5.04624 24.961 5.43934 25.2517 5.72916C25.5424 6.01899 25.9366 6.18182 26.3476 6.18182C26.7587 6.18182 27.1529 6.01899 27.4435 5.72916C27.7342 5.43934 27.8975 5.04624 27.8975 4.63636C27.8975 4.22648 27.7342 3.83339 27.4435 3.54356C27.1529 3.25373 26.7587 3.09091 26.3476 3.09091C25.9366 3.09091 25.5424 3.25373 25.2517 3.54356C24.961 3.83339 24.7978 4.22648 24.7978 4.63636ZM18.5983 7.72727C18.5983 8.13715 18.7616 8.53024 19.0523 8.82007C19.3429 9.1099 19.7371 9.27273 20.1482 9.27273C20.5592 9.27273 20.9534 9.1099 21.2441 8.82007C21.5348 8.53024 21.698 8.13715 21.698 7.72727C21.698 7.31739 21.5348 6.9243 21.2441 6.63447C20.9534 6.34464 20.5592 6.18182 20.1482 6.18182C19.7371 6.18182 19.3429 6.34464 19.0523 6.63447C18.7616 6.9243 18.5983 7.31739 18.5983 7.72727ZM12.3989 4.63636C12.3989 5.04624 12.5622 5.43934 12.8528 5.72916C13.1435 6.01899 13.5377 6.18182 13.9487 6.18182C14.3598 6.18182 14.754 6.01899 15.0447 5.72916C15.3353 5.43934 15.4986 5.04624 15.4986 4.63636C15.4986 4.22648 15.3353 3.83339 15.0447 3.54356C14.754 3.25373 14.3598 3.09091 13.9487 3.09091C13.5377 3.09091 13.1435 3.25373 12.8528 3.54356C12.5622 3.83339 12.3989 4.22648 12.3989 4.63636ZM6.19944 7.72727C6.19944 8.13715 6.36273 8.53024 6.65338 8.82007C6.94404 9.1099 7.33825 9.27273 7.7493 9.27273C8.16035 9.27273 8.55456 9.1099 8.84522 8.82007C9.13587 8.53024 9.29916 8.13715 9.29916 7.72727C9.29916 7.31739 9.13587 6.9243 8.84522 6.63447C8.55456 6.34464 8.16035 6.18182 7.7493 6.18182C7.33825 6.18182 6.94404 6.34464 6.65338 6.63447C6.36273 6.9243 6.19944 7.31739 6.19944 7.72727Z" fill="#D90504"/>
</svg>
